REM DIRINDEX 1\2\6,1\2\7,1\2\8,1\2\9,1\3\10,1\3\11,1\4\12,1\4\13,1\4\14,1\5\15,1\5\16,1\5\17
REM DIRNAME folder01,folder02,folder03,folder04,folder05,folder06,folder07,folder08,folder09,folder10,folder11,folder12,folder13,folder14,folder15,folder16,folder17
TITLE ""
FILE "1400_2_sec12_1167_1183.mp3" MP3
  TRACK 01 AUDIO
    TITLE "0:"
    INDEX 01 00:00:00
  TRACK 02 AUDIO
    TITLE "13:cjc029_3948"
    INDEX 01 00:00:19
  TRACK 03 AUDIO
    TITLE "0:"
    INDEX 01 00:01:40
  TRACK 04 AUDIO
    TITLE "14:cjc029_3949"
    INDEX 01 00:01:50
  TRACK 05 AUDIO
    TITLE "0:"
    INDEX 01 00:04:19
  TRACK 06 AUDIO
    TITLE "13:cjc029_3950"
    INDEX 01 00:05:03
  TRACK 07 AUDIO
    TITLE "0:"
    INDEX 01 00:06:16
  TRACK 08 AUDIO
    TITLE "14:cjc029_3951"
    INDEX 01 00:06:22
  TRACK 09 AUDIO
    TITLE "0:"
    INDEX 01 00:10:21
  TRACK 10 AUDIO
    TITLE "13:cjc029_3952"
    INDEX 01 00:11:03
  TRACK 11 AUDIO
    TITLE "0:"
    INDEX 01 00:12:16
  TRACK 12 AUDIO
    TITLE "14:cjc029_3953"
    INDEX 01 00:12:22
  TRACK 13 AUDIO
    TITLE "0:"
    INDEX 01 00:13:12
  TRACK 14 AUDIO
    TITLE "13:cjc029_3954"
    INDEX 01 00:13:71
  TRACK 15 AUDIO
    TITLE "0:"
    INDEX 01 00:14:72
  TRACK 16 AUDIO
    TITLE "14:cjc029_3955"
    INDEX 01 00:15:01
  TRACK 17 AUDIO
    TITLE "0:"
    INDEX 01 00:19:07
  TRACK 18 AUDIO
    TITLE "13:cjc029_3956"
    INDEX 01 00:19:67
  TRACK 19 AUDIO
    TITLE "0:"
    INDEX 01 00:21:17
  TRACK 20 AUDIO
    TITLE "14:cjc029_3957"
    INDEX 01 00:21:25
  TRACK 21 AUDIO
    TITLE "0:"
    INDEX 01 00:25:05
  TRACK 22 AUDIO
    TITLE "13:cjc029_3958"
    INDEX 01 00:25:62
  TRACK 23 AUDIO
    TITLE "0:"
    INDEX 01 00:27:02
  TRACK 24 AUDIO
    TITLE "14:cjc029_3959"
    INDEX 01 00:27:08
  TRACK 25 AUDIO
    TITLE "0:"
    INDEX 01 00:28:21
  TRACK 26 AUDIO
    TITLE "13:cjc029_3960"
    INDEX 01 00:29:03
  TRACK 27 AUDIO
    TITLE "0:"
    INDEX 01 00:30:12
  TRACK 28 AUDIO
    TITLE "14:cjc029_3961"
    INDEX 01 00:30:14
  TRACK 29 AUDIO
    TITLE "0:"
    INDEX 01 00:31:22
  TRACK 30 AUDIO
    TITLE "13:cjc029_3962"
    INDEX 01 00:32:01
  TRACK 31 AUDIO
    TITLE "0:"
    INDEX 01 00:33:40
  TRACK 32 AUDIO
    TITLE "14:cjc029_3963"
    INDEX 01 00:33:46
  TRACK 33 AUDIO
    TITLE "0:"
    INDEX 01 00:35:55
  TRACK 34 AUDIO
    TITLE "13:cjc029_3964"
    INDEX 01 00:36:36
  TRACK 35 AUDIO
    TITLE "0:"
    INDEX 01 00:37:48
  TRACK 36 AUDIO
    TITLE "14:cjc029_3965"
    INDEX 01 00:37:54
  TRACK 37 AUDIO
    TITLE "0:"
    INDEX 01 00:38:55
  TRACK 38 AUDIO
    TITLE "13:cjc029_3966"
    INDEX 01 00:39:39
  TRACK 39 AUDIO
    TITLE "0:"
    INDEX 01 00:40:64
  TRACK 40 AUDIO
    TITLE "14:cjc029_3967"
    INDEX 01 00:40:72
  TRACK 41 AUDIO
    TITLE "0:"
    INDEX 01 00:45:10
  TRACK 42 AUDIO
    TITLE "12:cjc029_3968"
    INDEX 01 00:46:60
  TRACK 43 AUDIO
    TITLE "0:"
    INDEX 01 00:48:28
  TRACK 44 AUDIO
    TITLE "13:cjc029_3969"
    INDEX 01 00:49:29
  TRACK 45 AUDIO
    TITLE "0:"
    INDEX 01 00:50:60
  TRACK 46 AUDIO
    TITLE "14:cjc029_3970"
    INDEX 01 00:50:68
  TRACK 47 AUDIO
    TITLE "0:"
    INDEX 01 00:53:58
  TRACK 48 AUDIO
    TITLE "13:cjc029_3971"
    INDEX 01 00:54:36
  TRACK 49 AUDIO
    TITLE "0:"
    INDEX 01 00:55:65
  TRACK 50 AUDIO
    TITLE "14:cjc029_3972"
    INDEX 01 00:55:71
  TRACK 51 AUDIO
    TITLE "0:"
    INDEX 01 00:57:25
  TRACK 52 AUDIO
    TITLE "13:cjc029_3973"
    INDEX 01 00:58:09
  TRACK 53 AUDIO
    TITLE "0:"
    INDEX 01 00:59:34
  TRACK 54 AUDIO
    TITLE "14:cjc029_3974"
    INDEX 01 00:59:38
  TRACK 55 AUDIO
    TITLE "0:"
    INDEX 01 01:02:16
  TRACK 56 AUDIO
    TITLE "13:cjc029_3975"
    INDEX 01 01:02:71
  TRACK 57 AUDIO
    TITLE "0:"
    INDEX 01 01:04:07
  TRACK 58 AUDIO
    TITLE "14:cjc029_3976"
    INDEX 01 01:04:09
  TRACK 59 AUDIO
    TITLE "0:"
    INDEX 01 01:06:47
  TRACK 60 AUDIO
    TITLE "13:cjc029_3977"
    INDEX 01 01:07:27
  TRACK 61 AUDIO
    TITLE "0:"
    INDEX 01 01:08:60
  TRACK 62 AUDIO
    TITLE "14:cjc029_3978"
    INDEX 01 01:08:68
  TRACK 63 AUDIO
    TITLE "0:"
    INDEX 01 01:10:69
  TRACK 64 AUDIO
    TITLE "13:cjc029_3979"
    INDEX 01 01:11:51
  TRACK 65 AUDIO
    TITLE "0:"
    INDEX 01 01:13:10
  TRACK 66 AUDIO
    TITLE "14:cjc029_3980"
    INDEX 01 01:13:14
  TRACK 67 AUDIO
    TITLE "0:"
    INDEX 01 01:15:58
  TRACK 68 AUDIO
    TITLE "13:cjc029_3981"
    INDEX 01 01:16:38
  TRACK 69 AUDIO
    TITLE "0:"
    INDEX 01 01:17:57
  TRACK 70 AUDIO
    TITLE "14:cjc029_3982"
    INDEX 01 01:17:63
  TRACK 71 AUDIO
    TITLE "0:"
    INDEX 01 01:20:65
